<?xml version="1.0" encoding="UTF-8" standalone="no"?>
<svg
   xmlns:dc="http://purl.org/dc/elements/1.1/"
   xmlns:cc="http://creativecommons.org/ns#"
   xmlns:rdf="http://www.w3.org/1999/02/22-rdf-syntax-ns#"
   xmlns:svg="http://www.w3.org/2000/svg"
   xmlns="http://www.w3.org/2000/svg"
   xmlns:sodipodi="http://sodipodi.sourceforge.net/DTD/sodipodi-0.dtd"
   xmlns:inkscape="http://www.inkscape.org/namespaces/inkscape"
   version="1.1"
   id="Layer_1"
   x="0px"
   y="0px"
   width="50px"
   height="50px"
   viewBox="0 0 50 50"
   enable-background="new 0 0 50 50"
   xml:space="preserve"
   sodipodi:docname="storageAccountAttached.svg"
   inkscape:version="1.0 (4035a4fb49, 2020-05-01)"><metadata
   id="metadata19"><rdf:RDF><cc:Work
       rdf:about=""><dc:format>image/svg+xml</dc:format><dc:type
         rdf:resource="http://purl.org/dc/dcmitype/StillImage" /></cc:Work></rdf:RDF></metadata><defs
   id="defs17" /><sodipodi:namedview
   inkscape:document-rotation="0"
   pagecolor="#ffffff"
   bordercolor="#666666"
   borderopacity="1"
   objecttolerance="10"
   gridtolerance="10"
   guidetolerance="10"
   inkscape:pageopacity="0"
   inkscape:pageshadow="2"
   inkscape:window-width="2160"
   inkscape:window-height="1470"
   id="namedview15"
   showgrid="false"
   inkscape:zoom="14.7"
   inkscape:cx="25"
   inkscape:cy="25"
   inkscape:window-x="85"
   inkscape:window-y="-11"
   inkscape:window-maximized="1"
   inkscape:current-layer="Layer_1" />
<path
   fill="#A0A1A2"
   d="M0,45.1c0,1,0.8,1.9,1.8,1.9h46.3c1,0,1.9-0.8,1.9-1.9V12H0V45.1z"
   id="path2" />
<path
   fill="#7A7A7A"
   d="M48.1,4.1H1.8C0.8,4.1,0,5,0,6v6h50V6c0-1-0.8-1.6-1.9-1.6"
   id="path4" />
<rect
   x="4"
   y="25.5"
   fill="#B8D432"
   width="42"
   height="7"
   id="rect6" />
<rect
   x="4"
   y="15"
   fill="#FFFFFF"
   width="42"
   height="7"
   id="rect8" />
<rect
   x="4"
   y="36"
   fill="#B8D432"
   width="42"
   height="7"
   id="rect10" />
<path
   opacity="0.2"
   fill="#FFFFFF"
   enable-background="new    "
   d="M2,4C0.9,4,0,4.9,0,6v7.3v3.3v28c0,1.1,0.9,2,2,2h2.2L43.6,4H2z"
   id="path12" />
<g
   id="shape20-11-3"
   transform="matrix(0.21984971,0,0,0.21355587,12.956739,-17.53669)"
   style="fill:#ff0000;fill-opacity:1"><title
     id="title32-4">Sheet.20</title><path
     d="m 0,200.91 h 18.19 l 16.25,-0.87 12.34,-44.32 c 0.65,-2.61 1.95,-7.83 7.15,-7.83 5.2,0 5.85,5.22 5.85,7.83 l 0.65,73.88 9.09,-25.21 c 0.65,-2.61 2.6,-3.48 3.9,-3.48 h 52.63 c 2.6,0 4.55,3.48 4.55,6.09 0,2.61 -1.95,7.82 -4.55,7.82 H 78.62 l -16.89,45.2 c -1.3,4.34 -2.6,6.08 -6.5,5.21 -1.95,-0.87 -3.9,-4.34 -3.9,-6.95 l -0.65,-67.8 -5.2,18.26 c -0.65,2.6 -1.95,6.08 -3.9,6.08 H 25.99 5.85 L 2.6,207.87 Z"
     class="st4"
     id="path34-3"
     style="fill:#ff0000;fill-opacity:1" /></g></svg>
