<?xml version="1.0" encoding="UTF-8" standalone="no"?>
<svg
   xmlns:dc="http://purl.org/dc/elements/1.1/"
   xmlns:cc="http://creativecommons.org/ns#"
   xmlns:rdf="http://www.w3.org/1999/02/22-rdf-syntax-ns#"
   xmlns:svg="http://www.w3.org/2000/svg"
   xmlns="http://www.w3.org/2000/svg"
   xmlns:sodipodi="http://sodipodi.sourceforge.net/DTD/sodipodi-0.dtd"
   xmlns:inkscape="http://www.inkscape.org/namespaces/inkscape"
   version="1.1"
   id="Layer_1"
   x="0px"
   y="0px"
   viewBox="-163 237 32 32"
   enable-background="new -163 237 32 32"
   xml:space="preserve"
   sodipodi:docname="eventHub.svg"
   inkscape:version="1.0.2 (e86c870879, 2021-01-15, custom)"><metadata
   id="metadata23"><rdf:RDF><cc:Work
       rdf:about=""><dc:format>image/svg+xml</dc:format><dc:type
         rdf:resource="http://purl.org/dc/dcmitype/StillImage" /></cc:Work></rdf:RDF></metadata><defs
   id="defs21" /><sodipodi:namedview
   pagecolor="#ffffff"
   bordercolor="#666666"
   borderopacity="1"
   objecttolerance="10"
   gridtolerance="10"
   guidetolerance="10"
   inkscape:pageopacity="0"
   inkscape:pageshadow="2"
   inkscape:window-width="2160"
   inkscape:window-height="1470"
   id="namedview19"
   showgrid="false"
   inkscape:zoom="4.71875"
   inkscape:cx="16"
   inkscape:cy="16"
   inkscape:window-x="85"
   inkscape:window-y="-11"
   inkscape:window-maximized="1"
   inkscape:current-layer="Layer_1" />
<path
   fill="#B8D432"
   d="M-144,251.5c0,0.3-0.2,0.5-0.5,0.5h-3.9c-0.3,0-0.5-0.2-0.5-0.5v-2.9c0-0.3,0.2-0.5,0.5-0.5h3.9  c0.3,0,0.5,0.2,0.5,0.5V251.5z"
   id="path2" />
<path
   fill="#B8D432"
   d="M-137,254.5c0,0.3-0.2,0.5-0.5,0.5h-3.9c-0.3,0-0.5-0.2-0.5-0.5v-2.9c0-0.3,0.2-0.5,0.5-0.5h3.9  c0.3,0,0.5,0.2,0.5,0.5V254.5z"
   id="path4" />
<path
   fill="#B8D432"
   d="M-144,257.5c0,0.3-0.2,0.5-0.5,0.5h-3.9c-0.3,0-0.5-0.2-0.5-0.5v-2.9c0-0.3,0.2-0.5,0.5-0.5h3.9  c0.3,0,0.5,0.2,0.5,0.5V257.5z"
   id="path6" />
<path
   fill="#B8D432"
   d="M-151,248.5c0,0.3-0.2,0.5-0.5,0.5h-4c-0.3,0-0.5-0.2-0.5-0.5v-3c0-0.3,0.2-0.5,0.5-0.5h3.9  c0.4,0,0.6,0.2,0.6,0.5V248.5z"
   id="path8" />
<path
   fill="#0072C6"
   d="M-133.5,238L-133.5,238h-3h-22.1h-1.9h-1c-0.3,0-0.5,0.2-0.5,0.5v6c0,0.3,0.2,0.5,0.5,0.5h3  c0.3,0,0.5-0.2,0.5-0.5V242h21v2.5c0,0.3,0.2,0.5,0.6,0.5h2.9c0.3,0,0.5-0.2,0.5-0.5v-3v-3C-133,238.2-133.2,238-133.5,238z"
   id="path10" />
<path
   fill="#0072C6"
   d="M-133.5,261.1h-2.9c-0.3,0-0.5,0.2-0.5,0.5v2.4H-158v-2.5c0-0.3-0.2-0.5-0.6-0.5h-2.9  c-0.3,0-0.5,0.2-0.5,0.6v5.9c0,0.3,0.2,0.5,0.5,0.5h1h2h22.1h2.8h0.1c0.3,0,0.5-0.2,0.5-0.5v-5.9  C-133,261.3-133.2,261.1-133.5,261.1z"
   id="path12" />
<path
   fill="#B8D432"
   d="M-151,254.5c0,0.3-0.2,0.5-0.5,0.5h-4c-0.3,0-0.5-0.2-0.5-0.5v-3c0-0.3,0.2-0.5,0.5-0.5h3.9  c0.4,0,0.6,0.2,0.6,0.5V254.5z"
   id="path14" />
<path
   fill="#B8D432"
   d="M-151,260.5c0,0.3-0.2,0.5-0.5,0.5h-4c-0.3,0-0.5-0.2-0.5-0.5v-3c0-0.3,0.2-0.5,0.5-0.5h3.9  c0.4,0,0.6,0.2,0.6,0.5V260.5z"
   id="path16" />
</svg>
