<svg enable-background="new 0 0 32 32" version="1.1" viewBox="0 0 32 32" xmlns="http://www.w3.org/2000/svg">
 <path d="m0 0h32v32h-32z" fill="#009da5"/>
 <g fill="#fff">
  <path d="m13.9 21.164h4.218v1.891h-4.218z"/>
  <path d="m18.409 21.673h1.527v1.382h-1.527z"/>
  <path d="m12.009 21.673h1.527v1.382h-1.527z"/>
  <path d="M15.282 23.418h1.382v.582h-1.382z"/>
  <path d="M24.882 18.109l-1.673-1.527h-1.018l1.236 1.164h-3.709v.8h3.709l-1.164 1.236h.945z"/>
  <path d="M15.282 20.873h1.382v-1.018c.8-.073 1.527-.364 2.255-.727v-1.382c-.436.364-1.018.655-1.6.8.364-.582.655-1.455.8-2.4.873-.145 1.745-.291 2.327-.582-.218.582-.509 1.018-.873 1.455h1.455c.582-.873.873-1.964.873-3.127 0-1.091-.291-2.109-.8-2.982-1.018-1.745-2.909-2.909-5.091-2.909-2.182 0-4.073 1.164-5.091 2.909-.509.873-.8 1.891-.8 2.982 0 3.055 2.327 5.527 5.236 5.891v1.091zm2.473-5.164c-.509.073-1.091.073-1.745.073-.655 0-1.236 0-1.745-.073-.073-.582-.145-1.164-.145-1.745 0-.436 0-.873.073-1.309.582.073 1.164.145 1.818.145.655 0 1.236-.073 1.818-.145.073.436.073.8.073 1.309 0 .655-.073 1.236-.145 1.745zm2.618-3.782c.291.582.436 1.309.436 2.036l-.073 1.018c-.509.291-1.309.582-2.473.727.073-.509.073-1.091.073-1.745 0-.436 0-.945-.073-1.382.8-.145 1.527-.364 2.109-.655zm-.218-.364c-.436.218-1.091.436-1.891.582-.145-1.164-.436-2.109-.873-2.764 1.164.364 2.109 1.091 2.764 2.182zm-4.145-2.4c.218 0 .436 0 .655.073.436.509.873 1.6 1.091 2.982-.509.073-1.091.145-1.745.145-.655 0-1.236-.073-1.745-.145.218-1.382.582-2.473 1.091-2.982.145-.073.436-.073.655-.073zm-1.382.218c-.364.655-.727 1.6-.873 2.764-.8-.145-1.455-.364-1.891-.582.582-1.091 1.6-1.818 2.764-2.182zm-3.418 4.582c0-.727.145-1.382.436-2.036.509.291 1.236.509 2.109.655-.073.436-.073.873-.073 1.382l.073 1.745c-1.164-.145-1.964-.436-2.473-.727l-.073-1.018zm.291 1.6c.582.291 1.455.436 2.327.582.145.945.436 1.818.8 2.4-1.455-.436-2.618-1.527-3.127-2.982zm2.836.655c.582.073 1.091.073 1.673.073.582 0 1.091 0 1.673-.073-.218 1.164-.582 2.036-.945 2.473l-.655.073c-.218 0-.436 0-.655-.073-.509-.509-.873-1.309-1.091-2.473z"/>
 </g>
</svg>
