<?xml version="1.0" encoding="UTF-8" standalone="no"?>
<svg
   xmlns:dc="http://purl.org/dc/elements/1.1/"
   xmlns:cc="http://creativecommons.org/ns#"
   xmlns:rdf="http://www.w3.org/1999/02/22-rdf-syntax-ns#"
   xmlns:svg="http://www.w3.org/2000/svg"
   xmlns="http://www.w3.org/2000/svg"
   xmlns:sodipodi="http://sodipodi.sourceforge.net/DTD/sodipodi-0.dtd"
   xmlns:inkscape="http://www.inkscape.org/namespaces/inkscape"
   version="1.1"
   id="Layer_1"
   x="0px"
   y="0px"
   viewBox="0 0 64 64"
   enable-background="new 0 0 64 64"
   xml:space="preserve"
   sodipodi:docname="queueTrigger.svg"
   inkscape:version="1.0.2 (e86c870879, 2021-01-15, custom)"><metadata
   id="metadata17"><rdf:RDF><cc:Work
       rdf:about=""><dc:format>image/svg+xml</dc:format><dc:type
         rdf:resource="http://purl.org/dc/dcmitype/StillImage" /></cc:Work></rdf:RDF></metadata><defs
   id="defs15" /><sodipodi:namedview
   pagecolor="#ffffff"
   bordercolor="#666666"
   borderopacity="1"
   objecttolerance="10"
   gridtolerance="10"
   guidetolerance="10"
   inkscape:pageopacity="0"
   inkscape:pageshadow="2"
   inkscape:window-width="2160"
   inkscape:window-height="1470"
   id="namedview13"
   showgrid="false"
   inkscape:zoom="11.484375"
   inkscape:cx="32"
   inkscape:cy="32"
   inkscape:window-x="85"
   inkscape:window-y="-11"
   inkscape:window-maximized="1"
   inkscape:current-layer="Layer_1" />

<g
   id="paths"
   transform="matrix(1.6800567,0,0,1.6800567,-95.643846,-64.835106)"><g
     id="Access_control" /><g
     id="Azure_active_directory" /><g
     id="API_Management" /><g
     id="Azure_automation" /><g
     id="Azure_SQL_database" /><g
     id="Azure_subscription" /><g
     id="Backup_service" /><g
     id="Bitbucket_code_source" /><g
     id="Azure_cache" /><g
     id="Content_delivery_network__x28_CDN_x29_" /><g
     id="Cloud_service" /><g
     id="CodePlex" /><g
     id="Dropbox_code_source" /><g
     id="Express_route" /><g
     id="Git_repository" /><g
     id="GitHub_code" /><g
     id="HD_Insight" /><g
     id="Health_monitoring" /><g
     id="Healthy" /><g
     id="BizTalk_hybrid_connection" /><g
     id="Hybrid_connection_manager_for_BizTalk_hybrid_connection" /><g
     id="Hyper-V_recovery_manager" /><g
     id="Machine_learning" /><g
     id="Media_services" /><g
     id="Microsoft_account" /><g
     id="Mobile_services" /><g
     id="Multi-factor_authentication" /><g
     id="MySQL_database" /><g
     id="Notification_hub" /><g
     id="Notification_topic" /><g
     id="Cloud_Office_365" /><g
     id="Office_365" /><g
     id="OS_image" /><g
     id="Remote_app" /><g
     id="Task_scheduler" /><g
     id="Azure_SDK" /><g
     id="Service_bus" /><g
     id="Service_bus_queue" /><g
     id="Service_bus_relay" /><g
     id="Service_bus_topic" /><g
     id="Service_endpoint" /><g
     id="Custom_create" /><g
     id="SQL_data_sync" /><g
     id="SQL_reporting" /><g
     id="Startup_task" /><g
     id="Windows_Azure_storage" /><g
     id="Storage_blob" /><g
     id="Storage_table" /><g
     id="Storage_queue"><g
       id="g69"><polygon
         fill="#0078d7"
         points="86.5,56.5 78.3,56.5 82.4,59.7 "
         id="polygon57" /><path
         fill="#0078d7"
         d="m 69.9,60.8 c -0.1,0 -0.2,0 -0.3,-0.1 l -3.8,-3 v 4.9 h 8.7 v -5 l -4.1,3.1 c -0.2,0.1 -0.4,0.1 -0.5,0.1 z"
         id="path59" /><path
         fill="#0078d7"
         d="m 82.4,60.8 c -0.1,0 -0.3,0 -0.3,-0.1 l -3.9,-3 v 4.9 h 8.7 v -5 l -4.1,3.1 c -0.2,0.1 -0.3,0.1 -0.4,0.1 z"
         id="path61" /><path
         fill="#0078d7"
         d="m 85.5,42.3 h -19 L 57,58.7 66.5,75.1 h 18.9 l 9.5,-16.4 z m 3.3,23.4 H 62.9 c -0.8,0 -1.4,-0.7 -1.4,-1.5 v -9.9 c 0,-0.8 0.6,-1.5 1.4,-1.5 h 25.9 c 0.3,0 0.8,0 4.2,6.4 l 0.1,0.3 -0.1,0.3 c -3.4,5.9 -3.9,5.9 -4.2,5.9 z"
         id="path63" /><polygon
         fill="#0078d7"
         points="74,56.5 65.7,56.5 69.8,59.7 "
         id="polygon65" /><path
         fill="#0078d7"
         d="m 62.9,53.9 c -0.2,0 -0.4,0.2 -0.4,0.4 v 9.9 c 0,0.2 0.2,0.5 0.4,0.5 h 25.7 c 0.5,-0.5 2,-2.9 3.3,-5.2 C 90.6,57 89,54.4 88.6,53.9 Z m 12.6,9.2 c 0,0.3 -0.3,0.6 -0.7,0.6 H 65 c -0.3,0 -0.4,-0.3 -0.4,-0.6 v -7.3 c 0,-0.3 0.1,-0.4 0.4,-0.4 h 9.8 c 0.3,0 0.7,0.1 0.7,0.4 z m 12.3,0 c 0,0.3 -0.2,0.6 -0.5,0.6 h -9.7 c -0.3,0 -0.5,-0.3 -0.5,-0.6 v -7.3 c 0,-0.3 0.2,-0.4 0.5,-0.4 h 9.7 c 0.3,0 0.5,0.1 0.5,0.4 z"
         id="path67" /></g></g></g></svg>
